<?xml version="1.0" encoding="utf-8"?>
<!-- Generator: Adobe Illustrator 19.0.0, SVG Export Plug-In . SVG Version: 6.00 Build 0)  -->
<svg version="1.1" id="Layer_1" xmlns="http://www.w3.org/2000/svg"  x="0px" y="0px"
	 viewBox="0 0 254.2 174.9" style="enable-background:new 0 0 254.2 174.9;" xml:space="preserve">
<style type="text/css">
	.st0{fill:#FFFFFF;}
	.st1{opacity:0.45;}
	.st2{fill:#249FD9;}
	.st3{fill:#FEFEFE;}
</style>
<g>
	<g id="XMLID_36_">
		<g id="XMLID_61_">
			<g id="XMLID_63_">
				<path id="XMLID_79_" class="st0" d="M69.7,169.4h-5.1v-21.3c0-5.2-1.1-9.2-3.3-12c-2.2-2.8-5.3-4.2-9.4-4.2
					c-3.8,0-6.7,1.2-8.9,3.6c-2.2,2.4-3.4,5.8-3.7,10.3v4.3v19.2h-5.1v-21.3c0-5.2-1.1-9.2-3.3-12c-2.2-2.8-5.3-4.2-9.4-4.2
					c-3.8,0-6.8,1.2-8.9,3.6c-2.2,2.4-3.4,5.8-3.7,10.2v23.6H3.5v-42.5h5.1v6.2c1.2-1.9,2.8-3.4,4.6-4.4c2.3-1.2,5-1.8,8-1.8
					c3,0,5.7,0.6,8,1.8c3.5,1.8,6.1,4.7,7.8,8.8c1.3-4.1,3.5-7.1,6.6-8.8c2.3-1.2,5-1.8,8-1.8c3,0,5.7,0.6,8.1,1.8
					c3.1,1.6,5.5,4.1,7.2,7.5c1.7,3.4,2.6,7.4,2.6,12V169.4z"/>
				<path id="XMLID_75_" class="st0" d="M111.3,126.9h5.1v42.5h-5.1v-8.2c-2.1,4.2-5.4,6.7-9.8,7.7L101,169
					c-1.4,0.3-2.8,0.4-4.4,0.4s-3-0.1-4.4-0.4l-0.4-0.1c-4.7-1-8.4-3.3-11-7c-2.6-3.7-4-8.3-4-13.8c0-5.6,1.3-10.2,4-13.9
					c2.6-3.7,6.3-6,11-6.9l0.5-0.1c1.3-0.2,2.7-0.4,4.2-0.4c1.5,0,2.9,0.1,4.3,0.4l0.4,0.1c4.5,1,7.8,3.6,9.9,7.7V126.9z
					 M96.6,164.2c4.6,0,8.2-1.4,10.8-4.2c2.5-2.8,3.8-6.8,3.8-11.9v0c0-5.1-1.3-9.1-3.8-11.9c-2.5-2.8-6.1-4.2-10.8-4.2
					c-4.6,0-8.2,1.4-10.8,4.2C83.3,139,82,143,82,148.1c0,5.1,1.3,9.1,3.8,11.9C88.4,162.8,92,164.2,96.6,164.2z"/>
				<path id="XMLID_72_" class="st0" d="M151.7,128.6c3.1,1.6,5.5,4.1,7.2,7.5c1.7,3.4,2.6,7.4,2.6,12v21.3h-5.1v-21.3
					c0-5.2-1.1-9.2-3.3-12c-2.2-2.8-5.4-4.2-9.5-4.2c-3.7,0-6.7,1.2-8.9,3.6c-2.2,2.4-3.4,5.8-3.7,10.2v23.6h-5.1v-42.5h5.1v6.1
					c1.2-1.9,2.8-3.3,4.6-4.4c2.3-1.2,5-1.8,8-1.8C146.6,126.8,149.3,127.4,151.7,128.6z"/>
				<path id="XMLID_68_" class="st0" d="M203.1,104.8h5.1v64.6h-5.1v-8.2c-2.1,4.2-5.4,6.7-9.8,7.7l-0.5,0.1
					c-1.4,0.3-2.8,0.4-4.4,0.4c-1.5,0-3-0.1-4.4-0.4l-0.4-0.1c-4.7-1-8.4-3.3-11-7c-2.6-3.7-4-8.3-4-13.8c0-5.6,1.3-10.2,4-13.9
					c2.6-3.7,6.3-6,11-6.9l0.4-0.1c1.4-0.2,2.8-0.4,4.3-0.4c1.5,0,2.9,0.1,4.3,0.4l0.4,0.1c4.5,1,7.8,3.6,9.9,7.7V104.8z
					 M188.4,164.2c4.6,0,8.2-1.4,10.8-4.2c2.5-2.8,3.8-6.8,3.8-11.9v0c0-5.1-1.3-9.1-3.8-11.9c-2.5-2.8-6.1-4.2-10.8-4.2
					c-4.6,0-8.2,1.4-10.8,4.2c-2.5,2.8-3.8,6.8-3.8,11.9c0,5.1,1.3,9.1,3.8,11.9C180.2,162.8,183.8,164.2,188.4,164.2z"/>
				<path id="XMLID_64_" class="st0" d="M245.9,163.1c-1.2,2-2.8,3.5-4.7,4.5c-2.4,1.2-5.1,1.8-8,1.8c-3,0-5.7-0.6-8.1-1.8
					c-3.1-1.6-5.5-4-7.2-7.5c-1.7-3.4-2.6-7.4-2.6-12v-21.3h5.1v21.3c0,5.2,1.1,9.2,3.3,12c2.2,2.8,5.3,4.2,9.4,4.2
					c3.8,0,6.8-1.2,8.9-3.6 M228.5,117.9c0.5,0,0.9,0.2,1.3,0.5c0.4,0.3,0.5,0.8,0.5,1.3c0,0.5-0.2,0.9-0.5,1.3
					c-0.4,0.3-0.8,0.5-1.3,0.5c-0.5,0-0.9-0.2-1.3-0.5c-0.4-0.4-0.5-0.8-0.5-1.3c0-0.5,0.2-0.9,0.5-1.3
					C227.5,118.1,228,117.9,228.5,117.9z M236.5,117.9c0.5,0,0.9,0.2,1.3,0.5c0.4,0.3,0.5,0.8,0.5,1.3c0,0.5-0.2,0.9-0.5,1.3
					c-0.4,0.3-0.8,0.5-1.3,0.5c-0.5,0-0.9-0.2-1.3-0.5c-0.4-0.4-0.5-0.8-0.5-1.3c0-0.5,0.2-0.9,0.5-1.3
					C235.5,118.1,236,117.9,236.5,117.9z"/>
			</g>
			<path id="XMLID_62_" class="st0" d="M232.8,164.2c4.1,0,7.3-1.4,9.4-4.2c2.2-2.8,3.3-6.7,3.3-12v-21.3h5.1v21.3
				c0,4.6-0.9,8.6-2.6,12c-1.7,3.4-4.1,5.9-7.2,7.5c-2.4,1.2-5.1,1.8-8.1,1.8"/>
		</g>
		<g id="XMLID_37_" class="st1">
			<g id="XMLID_39_">
				<path id="XMLID_59_" class="st0" d="M69.7,169.4h-5.1v-21.3c0-5.2-1.1-9.2-3.3-12c-2.2-2.8-5.3-4.2-9.4-4.2
					c-3.8,0-6.7,1.2-8.9,3.6c-2.2,2.4-3.4,5.8-3.7,10.3v4.3v19.2h-5.1v-21.3c0-5.2-1.1-9.2-3.3-12c-2.2-2.8-5.3-4.2-9.4-4.2
					c-3.8,0-6.8,1.2-8.9,3.6c-2.2,2.4-3.4,5.8-3.7,10.2v23.6H3.5v-42.5h5.1v6.2c1.2-1.9,2.8-3.4,4.6-4.4c2.3-1.2,5-1.8,8-1.8
					c3,0,5.7,0.6,8,1.8c3.5,1.8,6.1,4.7,7.8,8.8c1.3-4.1,3.5-7.1,6.6-8.8c2.3-1.2,5-1.8,8-1.8c3,0,5.7,0.6,8.1,1.8
					c3.1,1.6,5.5,4.1,7.2,7.5c1.7,3.4,2.6,7.4,2.6,12V169.4z"/>
				<path id="XMLID_56_" class="st0" d="M111.3,126.9h5.1v42.5h-5.1v-8.2c-2.1,4.2-5.4,6.7-9.8,7.7L101,169
					c-1.4,0.3-2.8,0.4-4.4,0.4s-3-0.1-4.4-0.4l-0.4-0.1c-4.7-1-8.4-3.3-11-7c-2.6-3.7-4-8.3-4-13.8c0-5.6,1.3-10.2,4-13.9
					c2.6-3.7,6.3-6,11-6.9l0.5-0.1c1.3-0.2,2.7-0.4,4.2-0.4c1.5,0,2.9,0.1,4.3,0.4l0.4,0.1c4.5,1,7.8,3.6,9.9,7.7V126.9z
					 M96.6,164.2c4.6,0,8.2-1.4,10.8-4.2c2.5-2.8,3.8-6.8,3.8-11.9v0c0-5.1-1.3-9.1-3.8-11.9c-2.5-2.8-6.1-4.2-10.8-4.2
					c-4.6,0-8.2,1.4-10.8,4.2C83.3,139,82,143,82,148.1c0,5.1,1.3,9.1,3.8,11.9C88.4,162.8,92,164.2,96.6,164.2z"/>
				<path id="XMLID_52_" class="st0" d="M151.7,128.6c3.1,1.6,5.5,4.1,7.2,7.5c1.7,3.4,2.6,7.4,2.6,12v21.3h-5.1v-21.3
					c0-5.2-1.1-9.2-3.3-12c-2.2-2.8-5.4-4.2-9.5-4.2c-3.7,0-6.7,1.2-8.9,3.6c-2.2,2.4-3.4,5.8-3.7,10.2v23.6h-5.1v-42.5h5.1v6.1
					c1.2-1.9,2.8-3.3,4.6-4.4c2.3-1.2,5-1.8,8-1.8C146.6,126.8,149.3,127.4,151.7,128.6z"/>
				<path id="XMLID_49_" class="st0" d="M203.1,104.8h5.1v64.6h-5.1v-8.2c-2.1,4.2-5.4,6.7-9.8,7.7l-0.5,0.1
					c-1.4,0.3-2.8,0.4-4.4,0.4c-1.5,0-3-0.1-4.4-0.4l-0.4-0.1c-4.7-1-8.4-3.3-11-7c-2.6-3.7-4-8.3-4-13.8c0-5.6,1.3-10.2,4-13.9
					c2.6-3.7,6.3-6,11-6.9l0.4-0.1c1.4-0.2,2.8-0.4,4.3-0.4c1.5,0,2.9,0.1,4.3,0.4l0.4,0.1c4.5,1,7.8,3.6,9.9,7.7V104.8z
					 M188.4,164.2c4.6,0,8.2-1.4,10.8-4.2c2.5-2.8,3.8-6.8,3.8-11.9v0c0-5.1-1.3-9.1-3.8-11.9c-2.5-2.8-6.1-4.2-10.8-4.2
					c-4.6,0-8.2,1.4-10.8,4.2c-2.5,2.8-3.8,6.8-3.8,11.9c0,5.1,1.3,9.1,3.8,11.9C180.2,162.8,183.8,164.2,188.4,164.2z"/>
				<path id="XMLID_40_" class="st0" d="M245.9,163.1c-1.2,2-2.8,3.5-4.7,4.5c-2.4,1.2-5.1,1.8-8,1.8c-3,0-5.7-0.6-8.1-1.8
					c-3.1-1.6-5.5-4-7.2-7.5c-1.7-3.4-2.6-7.4-2.6-12v-21.3h5.1v21.3c0,5.2,1.1,9.2,3.3,12c2.2,2.8,5.3,4.2,9.4,4.2
					c3.8,0,6.8-1.2,8.9-3.6 M228.5,117.9c0.5,0,0.9,0.2,1.3,0.5c0.4,0.3,0.5,0.8,0.5,1.3c0,0.5-0.2,0.9-0.5,1.3
					c-0.4,0.3-0.8,0.5-1.3,0.5c-0.5,0-0.9-0.2-1.3-0.5c-0.4-0.4-0.5-0.8-0.5-1.3c0-0.5,0.2-0.9,0.5-1.3
					C227.5,118.1,228,117.9,228.5,117.9z M236.5,117.9c0.5,0,0.9,0.2,1.3,0.5c0.4,0.3,0.5,0.8,0.5,1.3c0,0.5-0.2,0.9-0.5,1.3
					c-0.4,0.3-0.8,0.5-1.3,0.5c-0.5,0-0.9-0.2-1.3-0.5c-0.4-0.4-0.5-0.8-0.5-1.3c0-0.5,0.2-0.9,0.5-1.3
					C235.5,118.1,236,117.9,236.5,117.9z"/>
			</g>
			<path id="XMLID_38_" class="st0" d="M232.8,164.2c4.1,0,7.3-1.4,9.4-4.2c2.2-2.8,3.3-6.7,3.3-12v-21.3h5.1v21.3
				c0,4.6-0.9,8.6-2.6,12c-1.7,3.4-4.1,5.9-7.2,7.5c-2.4,1.2-5.1,1.8-8.1,1.8"/>
		</g>
	</g>
	<path id="XMLID_35_" class="st2" d="M57.4,70.1L57.4,70.1L57.4,70.1C57.4,70.1,57.4,70.1,57.4,70.1z"/>
	<path id="XMLID_32_" class="st3" d="M102.6,61.5l2.3,4.6l7.3-26.6c0.2-0.6,0.7-1.1,1.4-1.1c0.6,0,1.2,0.4,1.4,1l13.1,38.7
		l13.1-38.7c0.2-0.6,0.8-1,1.4-1c0.6,0,1.2,0.5,1.4,1.1l7.3,26.6l2.3-4.6c0.2-0.5,0.8-0.8,1.3-0.8h43.6c-2.1-9.2-8.7-16.7-17.4-20.1
		c-1.2-10.3-10-18.4-20.6-18.4c-3.2,0-6.3,0.7-9,2.1C144.5,13,132,5.5,117.8,5.5C97,5.5,80,21.6,78.3,41.9
		c-9.5,2.3-17.1,9.5-19.8,18.8h42.8C101.9,60.7,102.4,61,102.6,61.5z"/>
	<path id="XMLID_31_" class="st3" d="M152.2,70.8c-0.3,0.5-0.9,0.9-1.4,0.8c-0.6-0.1-1.1-0.5-1.3-1.1l-7-25.6l-13,38.3
		c-0.2,0.6-0.8,1-1.4,1c-0.6,0-1.2-0.4-1.4-1l-13-38.3l-7,25.6c-0.2,0.6-0.7,1-1.3,1.1c-0.6,0.1-1.2-0.3-1.4-0.8l-3.6-7.2H57.8
		c-0.3,1.6-0.4,3.2-0.4,4.8c0,15,12.2,27.3,27.2,27.3h86.2c15.8,0,28.5-12.8,28.5-28.5c0-1.2-0.1-2.4-0.2-3.6h-43.2L152.2,70.8z"/>
</g>
</svg>
